<?xml version="1.0" encoding="utf-8"?>
<!-- Generator: Adobe Illustrator 16.0.0, SVG Export Plug-In . SVG Version: 6.00 Build 0)  -->
<!DOCTYPE svg PUBLIC "-//W3C//DTD SVG 1.1//EN" "http://www.w3.org/Graphics/SVG/1.1/DTD/svg11.dtd">
<svg version="1.1" id="图层_1" xmlns="http://www.w3.org/2000/svg" xmlns:xlink="http://www.w3.org/1999/xlink" x="0px" y="0px"
	 width="173.671px" height="157.051px" viewBox="0 0 173.671 157.051" enable-background="new 0 0 173.671 157.051"
	 xml:space="preserve">
<path id="XMLID_12475_" fill="#B51C2D" d="M172.93,54.755c0.032-0.039,0.056-0.083,0.085-0.122c0.04-0.052,0.076-0.104,0.112-0.158
	c0.077-0.114,0.144-0.229,0.203-0.35c0.027-0.055,0.055-0.109,0.078-0.166c0.059-0.137,0.104-0.276,0.14-0.417
	c0.013-0.047,0.028-0.092,0.037-0.139c0.08-0.392,0.08-0.792-0.001-1.184c-0.01-0.053-0.027-0.102-0.04-0.153
	c-0.036-0.136-0.079-0.271-0.135-0.402c-0.024-0.059-0.052-0.114-0.08-0.172c-0.06-0.12-0.128-0.235-0.205-0.349
	c-0.034-0.053-0.068-0.104-0.106-0.154c-0.028-0.037-0.049-0.077-0.079-0.113l-41.46-49.706c-0.646-0.771-1.618-1.215-2.681-1.216
	c-0.052,0-0.1,0.013-0.15,0.016c-0.057-0.003-0.109-0.015-0.168-0.015c-1.527,0.001-2.806,0.953-3.227,2.248l-38.449,45.59
	L47.379,1.243c-0.041-0.049-0.094-0.084-0.137-0.129c-0.087-0.091-0.176-0.176-0.273-0.257c-0.084-0.07-0.17-0.137-0.261-0.2
	c-0.101-0.068-0.208-0.128-0.316-0.185c-0.095-0.051-0.187-0.104-0.287-0.146c-0.139-0.057-0.285-0.099-0.432-0.14
	c-0.08-0.021-0.154-0.051-0.235-0.067c-0.234-0.048-0.476-0.076-0.725-0.076h-0.005h-0.006c-0.023,0-0.045,0.006-0.069,0.007
	c-0.222,0.005-0.438,0.028-0.648,0.071c-0.095,0.019-0.183,0.053-0.273,0.079c-0.134,0.04-0.268,0.078-0.394,0.131
	c-0.104,0.043-0.198,0.096-0.295,0.149c-0.106,0.059-0.212,0.117-0.311,0.186c-0.091,0.063-0.178,0.13-0.262,0.203
	c-0.097,0.081-0.186,0.167-0.271,0.259c-0.046,0.049-0.102,0.086-0.145,0.138L0.677,51.057c-0.029,0.036-0.05,0.076-0.078,0.113
	c-0.038,0.05-0.072,0.102-0.107,0.154c-0.076,0.113-0.144,0.229-0.204,0.349c-0.028,0.058-0.055,0.114-0.079,0.172
	c-0.056,0.132-0.1,0.267-0.135,0.402c-0.014,0.052-0.03,0.101-0.041,0.153c-0.08,0.392-0.08,0.793,0.003,1.185
	c0.009,0.046,0.024,0.089,0.037,0.134c0.036,0.144,0.082,0.283,0.141,0.422c0.023,0.055,0.05,0.107,0.077,0.161
	c0.061,0.122,0.13,0.241,0.208,0.356c0.036,0.051,0.07,0.102,0.108,0.15c0.03,0.041,0.054,0.085,0.087,0.125l83.479,98.84
	c0.002,0.003,0.005,0.006,0.007,0.009l0.066,0.079c0.014,0.017,0.033,0.028,0.048,0.045c0.13,0.146,0.273,0.281,0.431,0.405
	c0.037,0.029,0.073,0.061,0.112,0.089c0.176,0.127,0.363,0.24,0.566,0.334c0.045,0.021,0.092,0.033,0.139,0.052
	c0.111,0.046,0.221,0.095,0.34,0.13c0.055,0.017,0.111,0.023,0.166,0.036c0.064,0.017,0.127,0.03,0.192,0.043
	c0.222,0.041,0.446,0.07,0.675,0.07c0.23,0,0.457-0.03,0.679-0.072c0.062-0.012,0.122-0.025,0.184-0.041
	c0.057-0.014,0.114-0.021,0.17-0.037c0.121-0.036,0.233-0.085,0.348-0.134c0.044-0.018,0.089-0.03,0.132-0.05
	c0.203-0.094,0.389-0.207,0.563-0.333c0.041-0.03,0.078-0.062,0.117-0.094c0.155-0.124,0.298-0.257,0.426-0.402
	c0.016-0.018,0.035-0.029,0.05-0.047l0.068-0.082c0.001-0.001,0.003-0.002,0.003-0.004L172.93,54.755z M121.641,56.013
	l-13.44,16.238L93.954,56.042L121.641,56.013z M65.297,72.482L51.669,56.086l28.005-0.029L65.297,72.482z M112.414,77.501
	l17.792-21.497l33.094-0.034l-34.547,41.077L112.414,77.501z M131.921,49.7l-0.039-37.754l31.463,37.722L131.921,49.7z
	 M41.375,49.793l-31.107,0.032l31.069-37.404L41.375,49.793z M43.104,56.095l17.837,21.46L44.8,96.945L10.328,56.128L43.104,56.095z
	 M65.378,82.527l18.094,19.386l0.042,40.871l-34.396-40.725L65.378,82.527z M69.658,77.489l17.157-19.602l17.198,19.566
	L86.854,95.916L69.658,77.489z M90.25,101.905l17.886-19.244l16.309,19.508l-34.152,40.606L90.25,101.905z M125.142,49.707
	l-31.358,0.032l31.32-37.138L125.142,49.707z M48.154,49.787l-0.039-37.481L79.83,49.754L48.154,49.787z"/>
</svg>
